<svg xmlns="http://www.w3.org/2000/svg" width="56" height="56" viewBox="0 0 56 56" fill="#ffffff"><g clip-path="url(#clip0_3484_388)"><path d="M9.03977 27.93V27.89C8.93977 24.13 11.9098 21.01 15.6598 20.91C15.7298 20.91 15.7998 20.91 15.8698 20.91C17.6398 20.86 19.3698 21.49 20.6898 22.66C20.8798 22.81 20.9898 23.04 20.9998 23.28C20.9898 23.7 20.6498 24.03 20.2298 24.03C20.0498 24.03 19.8798 23.96 19.7298 23.86C18.6898 22.86 17.2998 22.31 15.8498 22.32C12.9198 22.36 10.5798 24.76 10.6198 27.69C10.6198 27.75 10.6198 27.81 10.6198 27.86V27.9C10.4898 30.84 12.7598 33.34 15.6998 33.47C15.7498 33.47 15.7998 33.47 15.8398 33.47C17.3398 33.49 18.7898 32.9 19.8498 31.83C19.9798 31.7 20.1498 31.62 20.3298 31.62C20.7298 31.63 21.0498 31.95 21.0598 32.35C21.0598 32.56 20.9698 32.76 20.8098 32.89C19.4798 34.21 17.6698 34.92 15.7898 34.88C12.0698 34.91 9.02977 31.91 9.00977 28.19C9.00977 28.1 9.00977 28.02 9.00977 27.93H9.03977Z"></path><path d="M33.2798 34.5499L31.5298 32.7199C30.4298 34.0399 28.8098 34.8099 27.0898 34.8399C24.6598 34.8399 22.8398 33.3199 22.8398 31.0599V31.0199C22.8398 29.2199 24.0398 27.9299 26.0998 27.1199C25.2798 26.3399 24.7998 25.2799 24.7498 24.1499V24.1099C24.7998 22.2899 26.3198 20.8499 28.1398 20.8999C28.1998 20.8999 28.2598 20.8999 28.3198 20.9099C30.0398 20.8199 31.5098 22.1499 31.5998 23.8699C31.5998 23.8999 31.5998 23.9299 31.5998 23.9599V23.9999C31.5998 25.7199 30.3798 26.8199 28.4198 27.5099L31.5098 30.6599C32.0498 29.8399 32.5198 28.9899 32.9198 28.0899C33.0798 27.7399 33.4898 27.5899 33.8298 27.7499C34.0798 27.8599 34.2298 28.1099 34.2298 28.3799C34.2298 28.4999 34.1898 28.6199 34.1298 28.7299C33.6698 29.7399 33.0998 30.7099 32.4498 31.6099L34.3198 33.5199C34.4998 33.6699 34.6098 33.8899 34.6098 34.1199C34.6098 34.5099 34.3098 34.8299 33.9198 34.8299C33.9198 34.8299 33.8998 34.8299 33.8898 34.8299C33.6498 34.8299 33.4298 34.7299 33.2698 34.5499H33.2798ZM30.5998 31.7799L26.9698 28.0699C25.1698 28.7199 24.3798 29.8299 24.3798 30.9599V30.9999C24.4098 32.4399 25.5898 33.5799 27.0298 33.5599C27.0798 33.5599 27.1398 33.5599 27.1898 33.5599C28.5298 33.4899 29.7698 32.8499 30.5898 31.7899L30.5998 31.7799ZM30.1798 24.0799V24.0399C30.1998 23.0199 29.3898 22.1899 28.3798 22.1699C28.3398 22.1699 28.2998 22.1699 28.2698 22.1699C27.2098 22.1099 26.2898 22.9199 26.2298 23.9799C26.2298 24.0299 26.2298 24.0699 26.2298 24.1199V24.1599C26.2298 24.9499 26.5598 25.5499 27.5798 26.6499C29.2998 26.0599 30.1898 25.2499 30.1898 24.0799H30.1798Z"></path><path d="M36.4098 33.0299C36.2198 32.8999 36.1098 32.6799 36.1198 32.4499C36.1198 32.0399 36.4298 31.7099 36.8398 31.6999C36.8398 31.6999 36.8398 31.6999 36.8498 31.6999C37.0198 31.6999 37.1898 31.7599 37.3098 31.8699C38.4698 32.9299 39.9998 33.4999 41.5698 33.4699C43.3798 33.4699 44.5798 32.4999 44.5798 31.1699V31.1299C44.5798 29.8699 43.8998 29.1599 41.0698 28.5599C37.9598 27.8799 36.5398 26.8799 36.5398 24.6599V24.6199C36.5398 22.4999 38.4098 20.9399 40.9798 20.9399C42.5198 20.8899 44.0398 21.3599 45.2798 22.2699C45.4798 22.4099 45.5998 22.6399 45.6098 22.8799C45.6098 23.2899 45.2798 23.6099 44.8798 23.6199C44.7198 23.6199 44.5698 23.5799 44.4398 23.4799C43.4398 22.7099 42.2098 22.2999 40.9498 22.2999C39.1898 22.2999 38.0698 23.2599 38.0698 24.4799V24.5199C38.0698 25.7899 38.7698 26.5099 41.7298 27.1399C44.7398 27.7999 46.1298 28.8999 46.1298 30.9599V30.9999C46.1298 33.3199 44.1998 34.8199 41.5198 34.8199C39.6498 34.8399 37.8398 34.1999 36.3998 33.0099L36.4098 33.0299Z"></path><path d="M28.01 56.01C12.54 56.01 0 43.48 0 28.01C0 12.54 12.53 0 28 0C43.47 0 56.01 12.53 56.01 28C55.99 43.47 43.47 55.99 28.01 56.01ZM28.01 1.25C13.23 1.25 1.25 13.22 1.25 28C1.25 42.78 13.22 54.76 28 54.76C42.78 54.76 54.76 42.79 54.76 28.01C54.74 13.24 42.78 1.27 28.01 1.25Z"></path></g></svg>